<svg width="17" height="17" viewBox="0 0 17 17" fill="none" xmlns="http://www.w3.org/2000/svg">
<path d="M15.4456 7.11281H14.8751V7.08342H8.50008V9.91675H12.5032C11.9192 11.5661 10.3499 12.7501 8.50008 12.7501C6.15302 12.7501 4.25008 10.8471 4.25008 8.50008C4.25008 6.15302 6.15302 4.25008 8.50008 4.25008C9.58348 4.25008 10.5691 4.65879 11.3196 5.32639L13.3231 3.32287C12.058 2.14385 10.3658 1.41675 8.50008 1.41675C4.58831 1.41675 1.41675 4.58831 1.41675 8.50008C1.41675 12.4119 4.58831 15.5834 8.50008 15.5834C12.4119 15.5834 15.5834 12.4119 15.5834 8.50008C15.5834 8.02514 15.5345 7.56154 15.4456 7.11281Z" fill="#FFC107"/>
<path d="M2.2334 5.20314L4.56063 6.90987C5.19034 5.35083 6.71538 4.25008 8.50002 4.25008C9.58342 4.25008 10.5691 4.65879 11.3195 5.32639L13.3231 3.32287C12.058 2.14385 10.3658 1.41675 8.50002 1.41675C5.77931 1.41675 3.41986 2.95277 2.2334 5.20314Z" fill="#FF3D00"/>
<path d="M8.50003 15.5833C10.3297 15.5833 11.9921 14.8831 13.2491 13.7445L11.0568 11.8894C10.3456 12.4281 9.46159 12.75 8.50003 12.75C6.65765 12.75 5.0933 11.5752 4.50397 9.93579L2.19409 11.7155C3.36638 14.0094 5.74709 15.5833 8.50003 15.5833Z" fill="#4CAF50"/>
<path d="M15.4456 7.11265H14.875V7.08325H8.5V9.91659H12.5031C12.2226 10.7089 11.713 11.392 11.0557 11.8896C11.056 11.8893 11.0564 11.8893 11.0567 11.8889L13.249 13.7441C13.0939 13.885 15.5833 12.0416 15.5833 8.49992C15.5833 8.02498 15.5345 7.56138 15.4456 7.11265Z" fill="#1976D2"/>
</svg>
